<?xml version="1.0" encoding="utf-8"?>
<!-- Generator: Adobe Illustrator 24.3.0, SVG Export Plug-In . SVG Version: 6.00 Build 0)  -->
<svg version="1.1" id="Layer_1" xmlns="http://www.w3.org/2000/svg" xmlns:xlink="http://www.w3.org/1999/xlink" x="0px" y="0px"
	 viewBox="0 0 164.2 55" style="enable-background:new 0 0 164.2 55;" xml:space="preserve">
<style type="text/css">
	.st0{fill-rule:evenodd;clip-rule:evenodd;fill:#1E325F;}
	.st1{fill:#FFFFFF;}
	.st2{fill:#E87626;}
	.st3{fill:#F0A026;}
	.st4{fill:#4C96D1;}
	.st5{fill:#1E325F;}
</style>
<g id="Rapidlogo">
	<path id="Rapid" class="st0" d="M84.4,31.2L79,25.8c2.4-0.9,3.8-3.3,3.6-5.9c0.3-3.2-2-6-5.2-6.3c-0.4,0-0.7,0-1.1,0H63.6v17.7h3.1
		V16.7h9.6c1.7-0.2,3.2,1,3.4,2.6V20c0.3,1.7-0.9,3.3-2.6,3.6c-0.3,0-0.5,0-0.8,0H69v2.8h6.7l4.5,4.9L84.4,31.2L84.4,31.2z
		 M108.3,31.2L98.2,14.4c-0.2-0.6-0.8-1-1.5-1c-0.6,0.1-1.2,0.4-1.5,1l-10,16.9h3.6l8-13.5l3.9,6.7h-5.4l-1.5,2.4h8.5l2.6,4.5h3.4
		C108.3,31.4,108.3,31.2,108.3,31.2z M122.8,26.5c3.3,0.2,6.1-2.3,6.5-5.5v-1c0-3.9-2.3-6.2-6.5-6.2h-12.3v17.5h3.1V16.9h9.3
		c1.7-0.2,3.2,1.1,3.4,2.8v0.6c0.2,1.6-1,3-2.5,3.2c-0.1,0-0.3,0-0.4,0h-7.5v2.9L122.8,26.5z M135,31.2V13.6h-3.1v17.5h3.1V31.2z
		 M148.6,31.2c4.8,0,8.6-3.9,8.6-8.7c0-0.1,0-0.2,0-0.3c0.2-4.6-3.4-8.4-8-8.6h-10.7v17.5h10.1L148.6,31.2L148.6,31.2z M141.5,28.2
		V16.9h7.2c3,0,5.4,2.4,5.5,5.4v0.3c0.1,3-2.2,5.6-5.2,5.8h-7.5V28.2z"/>
	<g id="RAPID_RMS_LOGO">
		<g id="BG_ROUND">
			<circle class="st1" cx="29" cy="27.6" r="26"/>
		</g>
		<path class="st2" d="M11.3,41.4l13.3-7.6c4.4-2.5,5.9-8.1,3.4-12.5L20.4,7.9c-0.1-0.3-0.3-0.6-0.5-0.8c-0.2-0.3-0.5-0.3-0.8-0.2
			C11.1,10.7,6,18.7,5.9,27.6c0,4.9,1.5,9.7,4.4,13.6C10.6,41.3,11,41.4,11.3,41.4L11.3,41.4"/>
		<path class="st3" d="M30.6,19.6c2.5,4.4,8.1,5.9,12.5,3.4l6.7-3.9c0.3-0.2,0.3-0.5,0.3-0.8C46.4,9.9,38.2,4.5,29,4.5
			c-2,0-3.9,0.3-5.9,0.8c-0.3,0.2-0.6,0.7-0.3,1c0,0.1,0.1,0.2,0.2,0.2l0,0L30.6,19.6z"/>
		<path class="st4" d="M12.8,43.7c4.3,4.4,10.2,6.9,16.4,6.8c4.6,0,9.1-1.4,13-3.9c0.3-0.2,0.3-0.5,0.2-0.8l0,0l-3.7-6.3
			c-2.5-4.4-8.1-5.9-12.5-3.4L12.8,43.7L12.8,43.7"/>
		<path class="st5" d="M52.1,27.4c0-1.8-0.2-3.6-0.6-5.4c-0.2-0.3-0.7-0.6-1-0.3l-6.2,3.6c-4.4,2.5-5.9,8.1-3.4,12.5l3.3,5.7
			c0.2,0.4,0.7,0.5,1.1,0.2c0,0,0.1,0,0.1-0.1C49.6,39.4,52.1,33.5,52.1,27.4z"/>
	</g>
	<g>
		<path class="st2" d="M65.5,40.6v2.7h-1.6v-7c1.4,0,2.9,0,4.3,0c0.8,0.1,1.5,0.8,1.5,1.6c0.2,0.7-0.1,1.5-0.7,2
			c-0.1,0.1-0.3,0.2-0.4,0.3l1.3,3.1c-0.6,0-1.1,0-1.6,0c-0.1,0-0.3-0.2-0.4-0.3c-0.2-0.5-0.4-1.1-0.6-1.6
			C66.7,40.5,66.7,40.5,65.5,40.6z M65.5,39.2c0.5,0.1,1.1,0.1,1.6,0c0.3-0.1,0.6-0.4,0.7-0.8c0-0.3-0.2-0.6-0.4-0.8
			c-0.6-0.1-1.2-0.1-1.7,0c-0.1,0-0.1,0.8-0.2,1.2C65.5,39,65.5,39.1,65.5,39.2L65.5,39.2z"/>
		<path class="st2" d="M102.5,43.3h-1.9c-0.1-0.4-0.2-0.7-0.3-1.1c0-0.1-0.1-0.4-0.1-0.4h-0.5c-0.6,0-1.2,0-1.8,0
			c-0.2,0.5-0.6,1.5-0.6,1.5s-0.9,0-1.4,0c0.1-0.4,0.2-0.7,0.3-0.9c0.6-1.9,1.2-3.8,1.8-5.7c0.1-0.2,0.2-0.6,0.2-0.6h1.9
			c0.2,0.4,0.4,0.9,0.5,1.3L102.5,43.3z M99.1,38.2L99.1,38.2l-0.8,2.2h1.5L99.1,38.2z"/>
		<path class="st2" d="M81,39.6c0.2-1.2,1.2-1.8,2.8-1.7c1.3,0.1,1.9,0.6,2,1.8v3.5h-1.4c0-0.2,0-0.5,0-0.8c-0.5,0.6-1.2,0.9-2,0.9
			c-0.7,0-1.3-0.5-1.4-1.1c-0.3-0.7,0-1.4,0.6-1.7c0.5-0.2,1-0.4,1.5-0.4c0.4-0.1,0.8-0.1,1.2-0.2c0-0.5-0.4-1-1-1
			c-0.4,0-0.7,0.2-0.9,0.5c0,0.1,0,0.2,0,0.2H82C81.7,39.6,81.4,39.6,81,39.6z M84.3,40.7l-0.5,0.1c-0.2,0-0.3,0.1-0.5,0.1
			c-0.3,0.1-0.5,0.3-0.6,0.6c0,0.1,0,0.2,0,0.3c0.1,0.4,0.5,0.6,0.8,0.5h0.1C84.3,42,84.1,41.3,84.3,40.7L84.3,40.7z"/>
		<path class="st2" d="M75.7,41.4c-0.3,1.3-1.5,2.1-2.8,1.8c0,0,0,0-0.1,0c-1.4-0.2-2.4-1.6-2.1-3l0,0c0.1-1.4,1.3-2.5,2.7-2.4
			c0,0,0,0,0.1,0c1.5,0,2.3,1.1,2.4,3h-3.5c-0.2,0.6,0.1,1.2,0.7,1.4c0.5,0.2,1.1,0,1.4-0.4c0.3-0.3,0.2-0.4,0.2-0.4L75.7,41.4z
			 M74.3,39.8c0-0.8-0.4-1.1-1-1s-0.9,0.3-0.9,1H74.3z"/>
		<path class="st2" d="M108.2,39.8H107c-0.1,0-0.2,0-0.2,0c0-0.1,0-0.1,0-0.2c0-0.1-0.1-0.2-0.2-0.2l-0.3-0.2
			c-0.1-0.1-0.2-0.1-0.3-0.1c-0.2,0-0.4,0.1-0.6,0.2c-0.3,0.2-0.2,0.5-0.3,0.8c0,0.3,0,0.5,0,0.8c0,0.4,0,0.7,0.2,1
			c0.3,0.2,0.7,0.2,1,0c0.2-0.2,0.4-0.4,0.4-0.7h1.4c0,1.2-1.1,2.2-2.3,2.1c-0.1,0-0.2,0-0.3,0c-1.4,0-2.5-1.1-2.5-2.5
			c0,0,0,0,0-0.1c-0.2-1.4,0.8-2.7,2.3-2.9c0.1,0,0.1,0,0.2,0C106.9,37.7,108,38.6,108.2,39.8z"/>
		<path class="st2" d="M77.2,39.1h-0.9v-1.2h0.9l0.2-1.5c0.4,0,0.9,0,1.3,0c0,0.6,0,0.9,0,1.5h1.1v1.2h-1.1c-0.1,0.8-0.1,1.7,0,2.6
			c0,0.2,0.1,0.3,0.3,0.4c0.2,0.1,0.5,0.2,0.8,0.2v0.9c-0.3,0.1-0.6,0.1-0.9,0.1c-1.4,0-1.8-0.4-1.8-1.8L77.2,39.1z"/>
		<path class="st2" d="M90.1,36.2h1.5v7.1h-1.5V36.2z"/>
		<path class="st2" d="M121.3,36.2h1.4v7.1h-1.4V36.2z"/>
		<path class="st2" d="M131.8,43.3h-1.5v-5.2h1.4v0.7c0.3-0.6,0.7-1,1.4-0.8v1.4c-1,0.3-1.3,0.6-1.3,1.6
			C131.8,41.8,131.8,42.5,131.8,43.3z"/>
		<path class="st2" d="M87.1,38.1h1.5v5.2h-1.5V38.1z"/>
		<path class="st2" d="M88.6,37.3h-1.5v-1.4h1.5V37.3z"/>
		<path class="st2" d="M114.1,39.9c0,0-0.7,0-0.8,0h-0.4c-0.1,0-0.2,0-0.2,0v-0.2c0-0.1-0.1-0.2-0.1-0.2l-0.3-0.2
			c-0.1-0.1-0.2-0.1-0.3-0.2c-0.2,0-0.4,0.1-0.6,0.2c-0.3,0.2-0.3,0.5-0.3,0.8s0,0.5,0,0.8s0,0.8,0.2,1c0.3,0.2,0.7,0.2,1,0
			c0.2-0.2,0.3-0.4,0.4-0.7h1.4c-0.1,1.2-1.1,2.2-2.3,2.1c-0.1,0-0.2,0-0.2,0c-1.4,0-2.5-1.1-2.4-2.5c0,0,0,0,0-0.1
			c-0.2-1.4,0.8-2.7,2.3-2.9c0.1,0,0.1,0,0.2,0C112.9,37.8,114,38.6,114.1,39.9L114.1,39.9z"/>
		<path class="st2" d="M120.1,41.4c-0.3,1.3-1.5,2.1-2.8,1.8c0,0,0,0-0.1,0c-1.4-0.2-2.4-1.6-2.1-3c0,0,0,0,0-0.1
			c0.1-1.4,1.3-2.5,2.7-2.4l0,0c1.5,0,2.3,1.1,2.4,3h-3.5c-0.2,0.6,0.1,1.2,0.6,1.4l0,0c0.5,0.2,1.1,0.1,1.4-0.4
			c0.3-0.3,0.2-0.4,0.2-0.4L120.1,41.4z M118.8,39.8c0-0.8-0.4-1.1-1-1.1s-0.9,0.3-0.9,1L118.8,39.8z"/>
		<path class="st2" d="M128.9,41.4c-0.3,1.3-1.5,2.1-2.8,1.8H126c-1.5-0.4-2.4-1.9-2-3.4c0.3-1.2,1.4-2.1,2.7-2.1
			c1.5,0,2.3,1.1,2.4,3h-3.5c-0.2,0.6,0.1,1.2,0.6,1.4l0,0c0.5,0.2,1.1,0,1.4-0.4c0.3-0.3,0.2-0.4,0.2-0.4L128.9,41.4z M127.5,39.7
			c0-0.8-0.4-1.1-1-1.1s-0.9,0.3-0.9,1L127.5,39.7z"/>
		<path class="st2" d="M134.1,39.5c0.2-1.2,1.2-1.8,2.8-1.7c1.3,0,1.9,0.6,1.9,1.8s0,2.3,0,3.6h-1.4c0-0.3,0-0.5,0-0.8
			c-0.5,0.6-1.3,0.9-2,0.9c-0.8,0-1.5-0.7-1.5-1.6c0-0.5,0.3-1,0.8-1.3c0.5-0.2,1-0.3,1.5-0.4c0.3,0,0.6,0,1.2-0.2c0-0.5-0.4-1-1-1
			c-0.4,0-0.7,0.2-0.9,0.5c0,0.1,0,0.2,0,0.2h-0.4H134.1z M137.4,40.6l-0.5,0.1c-0.2,0-0.3,0.1-0.5,0.1c-0.3,0.1-0.5,0.4-0.6,0.7
			c0,0.1,0,0.2,0,0.3c0.1,0.3,0.5,0.5,0.8,0.4c0,0,0.1,0,0.1-0.1C137.2,42,137.2,41.2,137.4,40.6L137.4,40.6z"/>
		<path class="st2" d="M140.5,39.1h-0.9v-1.2h0.9l0.2-1.5c0.4,0,0.9,0,1.3,0c0,0.6,0,0.9,0,1.5h1.1v1.2H142c-0.1,0.8-0.1,1.7,0,2.6
			c0,0.2,0.1,0.3,0.3,0.4c0.2,0.1,0.5,0.2,0.8,0.2v0.9c-0.3,0.1-0.6,0.1-0.9,0.1c-1.4,0-1.8-0.4-1.8-1.8L140.5,39.1z"/>
		<path class="st2" d="M149.5,41.4c-0.3,1.3-1.5,2.1-2.8,1.8h-0.1c-1.5-0.4-2.4-1.9-2-3.4c0.3-1.2,1.4-2.1,2.7-2.1
			c1.5,0,2.3,1.1,2.4,3h-3.5c-0.2,0.6,0.1,1.2,0.6,1.4l0,0c0.5,0.2,1.1,0,1.4-0.4c0.3-0.3,0.2-0.4,0.2-0.4L149.5,41.4z M148.2,39.8
			c0-0.8-0.4-1.1-1-1.1s-0.9,0.3-0.9,1L148.2,39.8z"/>
		<path class="st2" d="M155,43.1h-1.4v-0.8c-0.1,0.2-0.3,0.4-0.4,0.6c-0.7,0.6-1.7,0.5-2.3-0.2c-0.1-0.1-0.2-0.2-0.2-0.4
			c-0.5-1.1-0.5-2.3,0-3.4c0.5-1.1,1.6-1.3,2.9-0.6v-2.1h1.5L155,43.1z M153.6,40.5c0-0.3,0-0.7-0.1-1c0-0.2-0.4-0.6-0.6-0.6
			s-0.7,0.2-0.7,0.5c-0.1,0.7-0.1,1.4,0,2.1v0.1c0,0.1,0.1,0.1,0.1,0.2c0.1,0.1,0.3,0.2,0.6,0.2c0.2,0,0.5-0.3,0.6-0.6
			C153.6,41.1,153.6,40.8,153.6,40.5z"/>
		<rect x="156.5" y="41.5" class="st2" width="1.6" height="1.6"/>
	</g>
</g>
</svg>
